<svg xmlns="http://www.w3.org/2000/svg" version="1.1" xmlns:xlink="http://www.w3.org/1999/xlink" xmlns:svgjs="http://svgjs.dev/svgjs" width="1440" height="560" preserveAspectRatio="none" viewBox="0 0 1440 560"><g mask="url(&quot;#SvgjsMask1003&quot;)" fill="none"><path d="M1464 560L0 560 L0 285.03Q62.88 275.9, 72 338.78Q120.56 267.34, 192 315.9Q246.31 298.2, 264 352.51Q290.31 258.82, 384 285.14Q455.67 236.81, 504 308.47Q551.24 283.71, 576 330.95Q644.62 279.57, 696 348.19Q763.66 295.86, 816 363.52Q881.73 309.25, 936 374.98Q936.97 303.95, 1008 304.92Q1050.46 275.38, 1080 317.84Q1125.28 291.12, 1152 336.39Q1201.19 313.58, 1224 362.77Q1256.09 274.86, 1344 306.94Q1424.58 267.51, 1464 348.09z" fill="#182f5d"></path><path d="M1464 560L0 560 L0 354.45Q74.9 357.35, 72 432.24Q137.17 377.41, 192 442.59Q239.08 369.67, 312 416.76Q314.94 347.69, 384 350.63Q449.55 296.18, 504 361.72Q547.17 332.89, 576 376.06Q638.24 366.3, 648 428.54Q692.85 353.38, 768 398.23Q833.87 344.1, 888 409.96Q921.69 323.65, 1008 357.34Q1083.41 312.75, 1128 388.17Q1195.1 335.27, 1248 402.37Q1260.74 343.11, 1320 355.85Q1364.13 327.98, 1392 372.11Q1433.66 341.77, 1464 383.44z" fill="#25467d"></path><path d="M1488 560L0 560 L0 448.09Q63.65 439.74, 72 503.38Q94.45 405.83, 192 428.28Q237.53 401.81, 264 447.34Q324.58 435.92, 336 496.5Q352.96 441.46, 408 458.42Q449.65 428.07, 480 469.72Q532.88 450.61, 552 503.49Q581.59 413.08, 672 442.66Q719.88 418.54, 744 466.41Q823.94 426.36, 864 506.3Q874 444.3, 936 454.3Q1004.87 403.16, 1056 472.03Q1135.67 431.7, 1176 511.38Q1204.56 467.94, 1248 496.5Q1274.33 402.82, 1368 429.15Q1448.97 390.13, 1488 471.1z" fill="#356cb1"></path><path d="M1536 560L0 560 L0 559.35Q69.5 508.85, 120 578.35Q156.01 494.36, 240 530.37Q311.55 481.92, 360 553.47Q403.15 476.63, 480 519.78Q572.16 491.94, 600 584.11Q652.83 516.94, 720 569.77Q769.93 499.7, 840 549.63Q862.12 499.75, 912 521.87Q993.17 483.04, 1032 564.2Q1057.89 470.09, 1152 495.98Q1230.78 454.76, 1272 533.54Q1327.97 517.51, 1344 573.48Q1370.43 527.91, 1416 554.35Q1458.99 477.35, 1536 520.34z" fill="rgba(36, 67, 96, 1)"></path></g><defs><mask id="SvgjsMask1003"><rect width="1440" height="560" fill="#ffffff"></rect></mask></defs></svg>